<?xml version="1.0" standalone="no"?>
<!DOCTYPE svg PUBLIC "-//W3C//DTD SVG 20010904//EN"
 "http://www.w3.org/TR/2001/REC-SVG-20010904/DTD/svg10.dtd">
<svg version="1.0" xmlns="http://www.w3.org/2000/svg"
 width="512.000000pt" height="512.000000pt" viewBox="0 0 512.000000 512.000000"
 preserveAspectRatio="xMidYMid meet">

<g transform="translate(0.000000,512.000000) scale(0.100000,-0.100000)"
fill="#000000" stroke="none">
<path d="M3151 5110 c-232 -33 -486 -142 -650 -279 l-47 -40 -525 -3 -524 -4
-98 -27 c-383 -103 -669 -387 -778 -772 -23 -79 -23 -89 -29 -805 -6 -818 0
-757 -88 -887 -63 -93 -77 -135 -77 -233 1 -71 5 -94 28 -141 29 -61 102 -134
183 -184 30 -19 60 -49 79 -79 28 -46 30 -57 34 -169 l3 -119 -45 -96 c-94
-199 -120 -341 -115 -617 3 -187 4 -191 32 -250 38 -77 124 -163 201 -201 58
-28 67 -29 240 -34 l179 -5 7 -34 c8 -39 34 -76 73 -105 27 -21 35 -21 831
-21 l803 0 39 31 c26 21 43 46 55 80 l16 49 179 5 c168 5 181 7 233 32 109 53
182 135 219 246 18 53 21 86 21 235 0 174 -14 294 -45 401 -8 27 -15 56 -15
63 0 11 112 13 611 13 l612 0 -6 88 c-6 109 -23 156 -92 257 -94 137 -94 223
0 360 73 108 88 150 89 260 1 116 -11 153 -85 266 -97 148 -98 225 -4 366 77
114 88 148 89 268 1 111 -15 161 -86 260 -74 104 -71 89 -79 430 -6 264 -10
322 -27 390 -68 265 -184 468 -373 650 -182 174 -379 279 -629 336 -99 23
-340 33 -439 19z m379 -176 c394 -74 722 -353 860 -731 55 -151 63 -213 69
-538 7 -340 6 -334 104 -478 56 -81 60 -97 55 -187 -3 -65 -7 -74 -61 -153
-77 -111 -100 -185 -94 -294 5 -93 28 -150 100 -255 51 -76 61 -111 55 -197
-4 -52 -12 -70 -65 -153 -69 -105 -93 -173 -93 -264 0 -86 28 -167 89 -257 79
-118 88 -108 -99 -105 l-162 3 -18 52 c-10 29 -41 85 -69 126 -57 82 -71 120
-71 187 1 62 18 102 79 190 57 82 81 148 81 222 l0 48 -57 0 c-92 0 -100 -5
-107 -60 -5 -36 -22 -71 -70 -143 -69 -104 -89 -163 -89 -262 0 -97 20 -158
84 -255 33 -49 59 -94 59 -99 0 -8 -98 -11 -309 -11 l-308 0 -57 89 c-31 50
-88 123 -126 164 l-70 75 74 46 c101 63 193 165 245 269 63 128 71 177 71 449
l0 236 46 16 c109 37 205 122 252 224 37 82 42 197 13 289 -21 66 -21 71 -6
138 22 98 31 333 16 435 -68 463 -393 844 -841 985 -93 29 -246 55 -325 55
l-50 0 42 25 c63 38 218 95 313 116 110 23 327 25 440 3z m-496 -347 c303 -94
524 -280 657 -552 74 -151 101 -268 103 -440 0 -77 -2 -152 -7 -168 l-7 -27
-38 19 c-20 10 -56 25 -80 32 -33 9 -44 18 -48 38 -44 208 -145 393 -289 530
-110 104 -105 103 -160 26 l-47 -65 28 -23 c107 -83 179 -174 239 -302 81
-171 78 -146 83 -817 3 -616 1 -656 -38 -760 -22 -59 -102 -178 -120 -178 -6
0 -10 281 -12 773 l-3 772 -29 75 c-77 202 -238 355 -441 421 -29 9 -153 14
-440 18 l-400 6 -3 248 -2 247 -80 0 -80 0 -2 -247 -3 -248 -235 -5 c-210 -5
-242 -8 -300 -29 -197 -68 -351 -223 -422 -421 -23 -64 -23 -72 -26 -555 -2
-331 0 -510 8 -550 17 -95 49 -183 98 -278 l46 -87 -18 -74 c-19 -83 -76 -203
-125 -265 l-33 -41 -28 58 c-34 67 -84 118 -171 176 -90 59 -104 82 -104 170
0 70 1 74 53 152 103 158 96 95 103 924 5 710 6 727 28 805 48 172 155 343
285 455 78 67 150 111 253 155 150 65 139 64 968 62 l750 -2 89 -28z m-232
-814 c123 -46 223 -135 279 -245 16 -32 29 -59 29 -60 0 -2 -470 -3 -1045 -3
-1040 0 -1045 0 -1039 20 20 67 106 175 180 226 47 32 130 67 189 79 22 5 335
7 695 6 647 -1 656 -2 712 -23z m-1027 -479 c37 -15 45 -56 45 -243 0 -179 0
-180 -26 -210 l-26 -31 -363 0 c-342 0 -364 1 -386 19 -24 19 -24 21 -24 226
0 205 0 207 24 226 22 18 44 19 381 19 197 0 366 -3 375 -6z m377 -223 c-3
-218 -2 -233 19 -281 13 -29 39 -66 62 -86 71 -60 99 -64 491 -64 198 0 366 4
385 10 l34 9 -6 -112 c-7 -121 -32 -228 -73 -310 -91 -181 -245 -316 -439
-384 l-80 -28 -480 0 -480 0 -80 28 c-119 42 -210 100 -300 191 -64 65 -90
100 -128 176 -60 121 -77 188 -84 327 l-6 112 34 -9 c19 -6 188 -10 385 -10
405 0 428 3 498 74 72 72 78 98 74 359 l-3 227 90 0 90 0 -3 -229z m943 223
c37 -15 45 -56 45 -239 0 -183 -8 -224 -45 -239 -22 -8 -718 -8 -740 0 -37 15
-45 56 -45 239 0 179 8 225 42 238 19 8 723 8 743 1z m596 -37 c48 -32 96
-108 105 -165 13 -87 -27 -181 -99 -233 -69 -50 -67 -55 -67 196 0 248 -1 244
61 202z m-554 -1514 c-3 -2 -42 20 -88 49 -46 29 -85 52 -86 53 -1 0 37 41 85
91 l87 90 3 -139 c1 -77 1 -142 -1 -144z m-1970 102 c-1 -1 -19 -11 -40 -23
l-38 -22 7 22 c4 13 11 34 16 47 l9 24 24 -23 c14 -13 24 -24 22 -25z m206
-116 c21 -10 25 -20 31 -82 3 -38 15 -89 25 -112 l19 -43 -87 -4 c-98 -5 -138
-21 -173 -70 -23 -32 -23 -38 -26 -310 l-3 -278 -164 0 -165 0 0 -85 0 -85
165 0 165 0 0 -165 0 -165 -143 0 c-172 0 -220 13 -282 75 -68 68 -79 114 -72
324 6 209 29 315 101 467 104 219 260 382 477 498 92 50 97 51 132 35z m1506
-30 c212 -106 386 -287 491 -511 69 -148 99 -303 100 -509 0 -158 -14 -211
-73 -272 -63 -64 -110 -77 -284 -77 l-143 0 0 165 0 165 165 0 165 0 0 85 0
85 -165 0 -165 0 0 266 c0 301 -3 316 -73 362 -33 22 -53 27 -127 30 l-88 4
18 42 c10 22 21 73 25 112 6 60 10 73 28 82 33 16 39 15 126 -29z m-1204 -45
c22 -3 54 -28 110 -84 l80 -80 -91 0 c-78 0 -96 3 -124 23 -47 31 -71 67 -77
115 l-6 41 39 -5 c22 -3 53 -7 69 -10z m882 -26 c-6 -48 -30 -84 -77 -115 -28
-20 -46 -23 -124 -23 l-91 0 81 81 c79 79 83 82 140 89 33 4 63 8 68 9 5 0 6
-18 3 -41z m-367 19 c0 -1 -28 -31 -63 -65 l-63 -62 -64 65 -64 65 127 0 c70
0 127 -1 127 -3z m620 -737 l0 -410 -745 0 -745 0 0 410 0 410 745 0 745 0 0
-410z m0 -660 l0 -80 -745 0 -745 0 0 80 0 80 745 0 745 0 0 -80z"/>
<path d="M4031 2802 c-48 -75 -63 -127 -63 -222 0 -101 17 -160 74 -245 23
-33 42 -62 44 -64 5 -6 134 80 134 90 0 5 -15 30 -34 56 -67 96 -75 185 -25
279 l30 58 -23 18 c-13 10 -42 31 -65 48 l-41 30 -31 -48z"/>
<path d="M2640 4213 l0 -80 68 -7 c37 -4 104 -16 150 -27 46 -11 85 -19 87
-17 2 1 15 34 29 72 20 54 24 71 14 77 -31 20 -181 52 -260 57 l-88 5 0 -80z"/>
<path d="M1652 2393 c15 -242 178 -405 408 -407 105 -1 168 19 248 79 109 80
172 211 172 359 l0 56 -416 0 -417 0 5 -87z m638 -97 c0 -23 -79 -104 -123
-125 -112 -54 -264 -2 -323 112 l-15 27 231 0 c187 0 230 -3 230 -14z"/>
<path d="M1997 1146 c-169 -47 -234 -263 -119 -396 52 -61 103 -84 187 -84 52
0 80 5 110 21 176 94 180 349 7 437 -62 31 -125 39 -185 22z m124 -185 c33
-33 35 -50 14 -90 -33 -65 -134 -52 -150 18 -18 83 75 132 136 72z"/>
</g>
</svg>
