<svg width="52" height="52" viewBox="0 0 52 52" fill="none" xmlns="http://www.w3.org/2000/svg">
<path d="M50.2668 23.4667L28.5334 1.73342C27.8667 1.06675 26.9334 0.666748 26.0001 0.666748C25.0667 0.666748 24.1334 1.06675 23.4667 1.73342L18.8001 6.40008L24.2668 11.8667C24.8001 11.6001 25.3334 11.4667 26.0001 11.4667C28.2667 11.4667 30.0001 13.2001 30.0001 15.4667C30.0001 16.1334 29.8668 16.6667 29.6001 17.2001L34.9334 22.5334C35.4668 22.2667 36.0001 22.1334 36.6667 22.1334C38.9334 22.1334 40.6667 23.8667 40.6667 26.1334C40.6667 28.4001 38.9334 30.1334 36.6667 30.1334C34.4001 30.1334 32.6667 28.4001 32.6667 26.1334C32.6667 25.4667 32.8001 24.9334 33.0667 24.4001L27.7334 19.0667C27.6001 19.0667 27.4667 19.2001 27.3334 19.2001V33.0667C28.9334 33.6001 30.0001 35.0667 30.0001 36.8001C30.0001 39.0667 28.2667 40.8001 26.0001 40.8001C23.7334 40.8001 22.0001 39.0667 22.0001 36.8001C22.0001 35.0667 23.0667 33.6001 24.6667 33.0667V19.0667C23.0667 18.5334 22.0001 17.0667 22.0001 15.3334C22.0001 14.6667 22.1334 14.1334 22.4001 13.6001L16.9334 8.13342L1.73342 23.4667C1.06675 24.1334 0.666748 25.0667 0.666748 26.0001C0.666748 26.9334 1.06675 27.8667 1.73342 28.5334L23.4667 50.2668C24.1334 50.9334 25.0667 51.3334 26.0001 51.3334C26.9334 51.3334 27.8667 50.9334 28.5334 50.2668L50.2668 28.5334C50.9334 27.8667 51.3334 26.9334 51.3334 26.0001C51.3334 25.0667 50.9334 24.1334 50.2668 23.4667Z" fill="#F4511E"/>
</svg>
